<svg version="1.1" id="Layer_1" xmlns="http://www.w3.org/2000/svg" xmlns:xlink="http://www.w3.org/1999/xlink" x="0px" y="0px" width="100%" viewBox="0 0 1024 1024" enable-background="new 0 0 1024 1024" xml:space="preserve">

<path fill="#106AD1" opacity="1.000000" stroke="none" d="
M646.443787,606.064148 
	C646.309875,605.963806 646.175964,605.863525 645.901001,605.244751 
	C645.470032,604.491577 645.180115,604.256958 644.890198,604.022339 
	C644.890198,604.022339 644.969055,604.030762 644.959351,603.824219 
	C644.621094,603.432983 644.292664,603.248352 643.964172,603.063660 
	C627.222229,587.817139 606.584717,578.647644 587.482239,567.129883 
	C525.618591,529.829407 463.505310,492.943115 401.543182,455.805542 
	C385.690887,446.304382 385.566620,425.315277 402.002869,414.124817 
	C418.287506,403.037506 435.409424,393.166931 452.294617,382.978973 
	C465.193146,375.196442 478.295349,367.751434 491.769348,360.279785 
	C492.450592,360.200897 492.669434,359.998505 492.888245,359.796082 
	C492.888245,359.796051 492.916382,359.890167 493.200745,359.895996 
	C493.963379,359.528595 494.441620,359.155396 494.919861,358.782166 
	C494.919891,358.782196 494.929352,358.894135 495.293549,358.923096 
	C496.157166,358.956146 496.704102,359.097900 497.149109,358.944336 
	C510.594696,354.303955 523.838623,354.607452 536.899963,360.424255 
	C537.593323,360.733093 538.497375,360.568726 539.303345,360.624634 
	C539.303345,360.624634 539.112122,360.648041 539.241455,360.957245 
	C540.625061,361.815430 541.879395,362.364380 543.133667,362.913361 
	C543.133667,362.913361 543.050293,362.936157 543.161499,363.224792 
	C545.626099,364.751190 547.979492,365.988983 550.332825,367.226776 
	C550.332825,367.226776 550.514771,367.330383 550.494995,367.754517 
	C552.363281,369.087067 554.251282,369.995483 556.139343,370.903931 
	C556.139343,370.903931 556.056091,370.929718 556.170166,371.225647 
	C557.896423,372.320404 559.508545,373.119293 561.120667,373.918152 
	C561.120667,373.918152 561.034424,373.968079 561.074951,374.285400 
	C562.775208,375.382385 564.434937,376.162079 566.094666,376.941772 
	C566.094666,376.941772 566.026428,376.980865 566.150330,377.259827 
	C567.240967,377.983093 568.207642,378.427338 569.174377,378.871613 
	C569.174377,378.871613 569.070862,378.897888 569.178833,379.187866 
	C570.289734,379.825470 571.292786,380.173157 572.295776,380.520844 
	C572.295776,380.520844 572.341980,380.591034 572.348511,380.940369 
	C573.621033,381.823181 574.887146,382.356689 576.153198,382.890198 
	C576.153198,382.890198 576.063477,382.919769 576.181763,383.136353 
	C576.653381,383.406464 577.006714,383.459961 577.360046,383.513489 
	C577.360046,383.513489 577.425781,383.515472 577.401428,383.885071 
	C578.646606,384.788239 579.916077,385.321777 581.185608,385.855316 
	C581.185608,385.855316 581.075012,385.891754 581.201172,386.132080 
	C581.918091,386.561584 582.508728,386.750793 583.099426,386.939972 
	C583.099426,386.939972 583.023376,386.983276 583.067810,387.304199 
	C584.779114,388.392609 586.446045,389.160065 588.112915,389.927551 
	C588.112915,389.927551 588.037903,389.960815 588.167297,390.176086 
	C588.652405,390.471436 589.008179,390.551514 589.363892,390.631592 
	C589.363892,390.631561 589.229126,390.615326 589.287048,390.959930 
	C590.616455,391.830048 591.888000,392.355560 593.159485,392.881073 
	C593.159485,392.881073 593.054016,392.928772 593.080627,393.217041 
	C594.405212,394.005859 595.703186,394.506348 597.001160,395.006836 
	C618.380371,407.594116 639.815918,420.086945 661.126404,432.789581 
	C698.510315,455.073181 735.739746,477.616730 773.188354,499.790558 
	C793.268860,511.680481 803.952698,529.132507 805.675964,552.875000 
	C805.226135,554.413818 805.026123,555.229919 805.025757,556.046204 
	C805.011047,588.450806 805.004883,620.855347 805.052124,653.259888 
	C805.053955,654.502380 805.593018,655.744141 805.881775,656.986206 
	C805.284607,672.360779 799.574280,685.808472 790.559875,698.062073 
	C783.004700,708.332153 772.927429,715.497986 762.056824,721.764709 
	C721.586304,745.095520 681.132874,768.456055 640.211426,791.696533 
	C639.545166,791.804871 639.340515,792.022095 639.135803,792.239258 
	C639.135803,792.239258 639.101624,792.137268 638.813660,792.117554 
	C638.056458,792.500549 637.587219,792.903259 637.117920,793.305969 
	C637.117920,793.305969 637.103210,793.156555 636.821106,793.133423 
	C635.716980,793.806030 634.895020,794.501770 634.072998,795.197510 
	C634.072998,795.197510 634.066223,795.090271 633.747925,795.067871 
	C631.966492,796.073608 630.503357,797.101746 629.040283,798.129822 
	C629.040283,798.129822 629.042542,798.048035 628.694092,798.041138 
	C626.247864,799.407776 624.150085,800.781372 622.052368,802.154907 
	C622.052368,802.154907 622.050659,802.064148 621.711792,802.052795 
	C619.944092,803.078430 618.515259,804.115417 617.086365,805.152466 
	C617.086365,805.152466 617.056580,805.061829 616.773010,805.071655 
	C616.012146,805.452026 615.534851,805.822571 615.057556,806.193115 
	C615.057556,806.193115 615.056030,806.081848 614.739563,806.062256 
	C612.967407,807.084229 611.511719,808.125854 610.055969,809.167480 
	C610.055969,809.167419 610.051575,809.071167 609.717346,809.051270 
	C607.843018,810.187134 606.302917,811.342896 604.762817,812.498657 
	C604.762817,812.498657 604.525024,812.621094 604.132751,812.492310 
	C603.515747,812.635254 603.291077,812.907104 603.066345,813.178894 
	C603.066345,813.178894 603.061462,813.077026 602.768372,813.085693 
	C602.075745,813.544983 601.676208,813.995544 601.276611,814.446106 
	C601.276611,814.446106 601.129700,814.332764 600.868164,814.248047 
	C599.767822,814.849915 598.928955,815.536621 598.090088,816.223328 
	C598.090088,816.223328 598.076538,816.109253 597.796265,816.096558 
	C597.038147,816.472412 596.560242,816.860901 596.082336,817.249390 
	C596.082336,817.249451 596.074097,817.117065 595.753662,817.084229 
	C594.499268,817.881531 593.565247,818.711731 592.631226,819.541870 
	C592.631226,819.541870 592.461060,819.565796 592.109253,819.454834 
	C591.529114,819.626282 591.300781,819.908752 591.072449,820.191284 
	C591.072449,820.191284 591.067444,820.086853 590.736450,820.061401 
	C589.454529,820.865356 588.503723,821.694702 587.552856,822.524109 
	C587.552856,822.524109 587.425232,822.523132 587.096497,822.427002 
	C586.528137,822.603271 586.288513,822.875732 586.048950,823.148193 
	C586.048950,823.148193 586.047668,823.060120 585.716675,823.046143 
	C584.319458,823.806702 583.253357,824.581238 582.187256,825.355713 
	C582.187256,825.355774 582.145874,825.219238 581.859924,825.175415 
	C580.737854,825.816711 579.901733,826.501892 579.065552,827.187012 
	C579.065552,827.187012 579.059814,827.083130 578.741455,827.060791 
	C576.961243,828.065063 575.499329,829.091675 574.037476,830.118347 
	C574.037476,830.118347 574.039978,830.037659 573.696838,830.040283 
	C571.925659,831.070435 570.497620,832.097961 569.069580,833.125488 
	C569.069580,833.125549 569.036011,833.037842 568.756104,833.051880 
	C567.997742,833.426208 567.519409,833.786560 567.041016,834.146912 
	C567.041016,834.146912 567.044495,834.056641 566.721069,834.048218 
	C564.942627,835.062439 563.487549,836.085083 562.032471,837.107666 
	C562.032471,837.107666 562.028320,837.029053 561.742310,837.051941 
	C560.989624,837.447327 560.522949,837.819824 560.056274,838.192322 
	C560.056274,838.192322 560.055969,838.080322 559.721924,838.062622 
	C556.285278,839.767517 553.182739,841.490112 550.080200,843.212769 
	C550.080200,843.212769 550.068298,843.099426 549.795654,843.092529 
	C549.025208,843.430298 548.527405,843.775085 548.029602,844.119812 
	C548.029602,844.119812 548.036011,844.040222 547.658447,844.036621 
	C545.675659,844.356506 544.037964,844.567688 542.470276,845.020813 
	C525.249023,849.998901 507.959595,851.314331 490.470825,846.345764 
	C485.708893,844.992920 480.841553,844.011047 476.022614,842.858887 
	C458.478424,832.883423 440.891846,822.981567 423.398438,812.917786 
	C380.924622,788.483093 338.496643,763.968628 296.044464,739.496338 
	C284.434052,732.803345 272.754608,726.228516 261.196991,719.445862 
	C251.514465,713.763672 243.076614,706.581543 236.274155,697.187622 
	C235.848175,696.170105 235.330963,695.626892 234.813751,695.083679 
	C234.813766,695.083679 234.907806,695.068298 234.908447,694.774658 
	C234.470718,694.061584 234.032333,693.642212 233.593948,693.222839 
	C233.593948,693.222839 233.777145,693.155334 233.738068,692.953247 
	C233.377838,692.545593 233.056656,692.340088 232.735474,692.134583 
	C232.735474,692.134583 232.851105,692.117554 232.891144,691.799316 
	C231.904022,690.005676 230.876862,688.530396 229.849701,687.055054 
	C229.849701,687.055054 229.934616,687.049622 229.926376,686.760742 
	C229.524368,686.015076 229.130615,685.558289 228.736847,685.101501 
	C228.736832,685.101501 228.862091,685.083618 228.899048,684.742554 
	C228.260986,682.196594 227.530258,680.007080 226.921646,677.784058 
	C225.264008,671.729431 222.457581,665.700317 222.255219,659.590027 
	C221.633102,640.804199 221.960831,621.984619 222.144302,603.180359 
	C222.155258,602.055969 224.135864,600.950806 225.199936,599.836731 
	C225.199936,599.836731 225.081436,599.875732 225.203339,600.120605 
	C225.926010,600.547424 226.526779,600.729431 227.127533,600.911438 
	C227.127533,600.911438 227.048096,600.942505 227.168701,601.163025 
	C227.641449,601.499817 227.993622,601.616089 228.345779,601.732361 
	C228.345779,601.732361 228.160767,601.758606 228.263000,602.012024 
	C228.987396,602.446106 229.609543,602.626709 230.231689,602.807312 
	C230.231689,602.807312 230.111862,602.844910 230.206146,603.061218 
	C230.637695,603.302795 230.974976,603.328064 231.312256,603.353271 
	C231.312256,603.353333 231.513458,603.390015 231.494354,603.795044 
	C233.388321,605.073120 235.301392,605.946228 237.214478,606.819336 
	C237.214478,606.819336 237.102310,606.858154 237.203339,607.085205 
	C237.665756,607.410889 238.027130,607.509583 238.388504,607.608337 
	C238.388504,607.608337 238.244553,607.603455 238.318344,607.908569 
	C239.008286,608.402222 239.624435,608.590759 240.240601,608.779297 
	C240.240601,608.779297 240.115677,608.829956 240.230499,609.081055 
	C240.955338,609.510864 241.565323,609.689575 242.175308,609.868286 
	C242.175308,609.868286 242.075333,609.901123 242.186981,610.121338 
	C242.655853,610.411926 243.013077,610.482239 243.370300,610.552551 
	C243.370300,610.552551 243.405197,610.505920 243.384506,610.879028 
	C245.284256,612.140503 247.204697,613.028809 249.125153,613.917053 
	C249.125153,613.917053 249.036026,613.957520 249.082550,614.285156 
	C250.167038,615.003845 251.205017,615.394958 252.242981,615.786072 
	C252.242981,615.786072 252.108139,615.834351 252.229340,616.084106 
	C252.970703,616.496582 253.590866,616.659424 254.211044,616.822205 
	C254.211044,616.822205 254.100555,616.859497 254.194702,617.152344 
	C255.290070,617.805969 256.291290,618.166809 257.292511,618.527649 
	C257.292511,618.527649 257.367432,618.536987 257.343262,618.854492 
	C258.209167,619.465149 259.099274,619.758240 259.989380,620.051392 
	C284.566956,634.407471 309.162781,648.732361 333.718262,663.126160 
	C381.272797,691.001465 428.761017,718.990417 476.380707,746.753845 
	C486.603729,752.714172 498.059692,755.720581 509.711578,753.680359 
	C516.905701,752.420715 523.996338,748.912109 530.418457,745.182312 
	C561.204712,727.302307 591.748047,709.004150 622.372498,690.845764 
	C623.931396,689.921387 625.441711,688.915100 627.674561,687.927368 
	C628.747803,687.442383 629.121155,686.976929 629.494446,686.511536 
	C629.494446,686.511536 629.578003,686.527954 629.910278,686.592285 
	C630.455933,686.351318 630.669312,686.046143 630.882690,685.740967 
	C630.882690,685.740967 630.916809,685.895325 631.112427,685.824341 
	C631.526062,685.461792 631.744080,685.170227 631.962036,684.878662 
	C631.962036,684.878662 631.962036,684.959290 632.258301,684.939087 
	C632.973145,684.486206 633.391663,684.053589 633.810242,683.620972 
	C633.810242,683.620972 633.866699,683.811829 634.065369,683.762329 
	C634.471741,683.391296 634.679443,683.069702 634.887085,682.748169 
	C634.887085,682.748169 634.915100,682.902893 635.113892,682.824097 
	C635.522400,682.441528 635.732056,682.137756 635.941711,681.833923 
	C635.941711,681.833923 635.955200,681.953491 636.153625,681.853577 
	C636.554016,681.457031 636.755920,681.160461 636.957886,680.863892 
	C636.957886,680.863892 636.967407,680.967285 637.169922,680.858398 
	C637.569031,680.448914 637.765686,680.148254 637.962402,679.847595 
	C637.979309,679.508911 638.133545,679.253052 638.992432,678.994324 
	C640.018738,678.233276 640.477783,677.557800 640.936890,676.882324 
	C640.936829,676.882324 640.956970,676.960754 641.169678,676.859009 
	C641.571411,676.455444 641.760498,676.153687 641.949585,675.851929 
	C641.949585,675.851929 641.960022,675.961426 642.164856,675.853271 
	C642.554016,675.430847 642.738342,675.116577 642.922668,674.802307 
	C642.922668,674.802307 642.918152,674.920410 643.225220,674.901978 
	C644.306946,673.521301 645.081665,672.158936 645.856384,670.796631 
	C645.856384,670.796631 645.888123,670.919434 646.179138,670.821655 
	C647.271362,669.089478 648.072510,667.455017 648.873657,665.820557 
	C648.873657,665.820557 648.906494,665.941711 649.148010,665.805054 
	C649.552368,665.053528 649.715271,664.438782 649.878113,663.823975 
	C649.878113,663.823975 649.902832,663.939270 650.190308,663.826172 
	C651.646179,661.138794 652.814514,658.564514 654.034851,655.589111 
	C654.620667,652.609131 655.613892,650.027710 655.599182,647.452026 
	C655.560303,640.639038 655.085144,633.828552 654.783630,627.017029 
	C654.783630,627.017029 654.928040,627.030518 654.943604,626.658447 
	C653.549072,621.881531 652.138977,617.476746 650.728882,613.071960 
	C650.728882,613.071960 650.884094,613.077332 650.906799,612.794617 
	C650.116394,611.359802 649.303284,610.207703 648.490112,609.055603 
	C648.354309,608.928101 648.218567,608.800659 648.010620,608.104004 
	C647.440247,607.044678 646.942017,606.554382 646.443787,606.064148 
z" data-index="1"></path>
<path fill="#116AD1" opacity="1.000000" stroke="none" d="
M546.985596,183.129639 
	C557.437866,188.756180 568.040283,194.122528 578.317871,200.051834 
	C640.914001,236.164474 703.603333,272.120972 765.897400,308.748932 
	C789.400635,322.568512 802.961853,343.761993 805.616211,371.968597 
	C805.202332,392.132782 805.132141,411.567444 804.969482,431.001312 
	C804.953369,432.932007 804.373901,434.857971 804.055969,436.786133 
	C782.517090,424.404816 760.926819,412.111908 739.449646,399.624512 
	C688.034668,369.730469 636.672852,339.744934 584.974365,309.205505 
	C584.038635,308.429749 583.418274,308.244904 582.797852,308.060028 
	C582.797852,308.060028 582.358765,308.024597 582.122192,307.554657 
	C580.532959,306.431244 579.180176,305.777771 577.827454,305.124329 
	C577.827454,305.124329 577.929504,305.091003 577.820312,304.876648 
	C577.363464,304.611877 577.015747,304.561462 576.668030,304.511078 
	C576.668030,304.511078 576.584412,304.477783 576.581055,304.122925 
	C574.673340,302.874542 572.768860,301.981079 570.864441,301.087585 
	C570.864441,301.087585 570.947388,301.061768 570.831055,300.853882 
	C570.382629,300.621094 570.050476,300.596161 569.718323,300.571228 
	C569.718323,300.571228 569.533813,300.585846 569.538086,300.209595 
	C568.932251,299.646515 568.322205,299.459686 567.712158,299.272858 
	C567.712158,299.272858 567.847961,299.224640 567.770386,298.923920 
	C566.426331,298.103363 565.159851,297.583527 563.893311,297.063721 
	C563.893311,297.063721 563.967102,297.035828 563.823975,296.799957 
	C563.100586,296.385986 562.520386,296.207886 561.940186,296.029785 
	C561.940186,296.029785 561.986694,295.993927 561.938843,295.661285 
	C560.872253,294.924225 559.853577,294.519806 558.834900,294.115387 
	C558.834900,294.115387 558.940674,294.080322 558.813965,293.844604 
	C558.102356,293.417358 557.517334,293.225800 556.932373,293.034210 
	C556.932373,293.034210 556.985046,292.997620 556.853149,292.781616 
	C556.376587,292.449554 556.032043,292.333466 555.687439,292.217377 
	C555.687439,292.217377 555.870667,292.188354 555.761475,291.947601 
	C555.037415,291.517639 554.422668,291.328430 553.807861,291.139221 
	C553.807861,291.139221 553.930054,291.102875 553.803833,290.864441 
	C553.078735,290.441284 552.479980,290.256531 551.881165,290.071808 
	C551.881165,290.071808 551.959229,290.048889 551.841553,289.760193 
	C550.088562,288.689575 548.453308,287.907654 546.818054,287.125732 
	C546.818054,287.125732 546.928772,287.096680 546.829346,286.809021 
	C544.702698,285.547577 542.675476,284.573730 540.648315,283.599884 
	C540.648315,283.599884 540.656921,283.505249 540.627686,283.144379 
	C539.332336,282.237732 538.066223,281.691956 536.800110,281.146179 
	C536.800110,281.146179 536.927002,281.108734 536.798767,280.870514 
	C536.066284,280.451721 535.462036,280.271149 534.857788,280.090576 
	C534.857788,280.090576 534.948975,280.064575 534.830933,279.773499 
	C526.148376,271.899994 505.543427,273.353302 497.582306,278.548737 
	C497.382111,278.679352 497.404724,279.151428 497.323425,279.464264 
	C497.323425,279.464264 497.393707,279.202301 497.005920,279.200195 
	C496.146088,279.599762 495.674072,280.001465 495.202087,280.403198 
	C495.202087,280.403198 495.138123,280.224762 494.946808,280.244141 
	C494.511749,280.533691 494.268036,280.803894 494.024323,281.074097 
	C494.024323,281.074097 494.016327,281.003632 493.680176,281.016357 
	C492.263000,281.766663 491.182007,282.504211 490.101013,283.241760 
	C490.101013,283.241760 490.084137,283.120300 489.771973,283.108948 
	C487.475342,284.563232 485.490906,286.028839 483.506439,287.494446 
	C483.506439,287.494446 483.396149,287.497101 483.009399,287.362091 
	C482.307007,287.662445 481.991364,288.097809 481.675690,288.533173 
	C481.675690,288.533173 481.522522,288.566956 481.151306,288.477173 
	C480.598999,288.716064 480.417877,289.044708 480.236725,289.373352 
	C480.236725,289.373352 480.159149,289.219818 479.952057,289.253845 
	C479.523529,289.591766 479.302124,289.895691 479.080688,290.199585 
	C479.080688,290.199585 479.074890,290.092224 478.781433,290.093201 
	C478.084595,290.546478 477.681244,290.998779 477.277893,291.451111 
	C477.277863,291.451080 477.181091,291.376526 476.875977,291.271454 
	C474.727631,292.486389 472.884399,293.806396 471.041168,295.126434 
	C471.041168,295.126434 471.041016,295.044678 470.754852,295.064636 
	C469.999481,295.456146 469.530304,295.827728 469.061127,296.199310 
	C469.061127,296.199310 469.059143,296.084839 468.773071,296.089233 
	C468.058899,296.527191 467.630768,296.960724 467.202667,297.394257 
	C467.202667,297.394257 467.150360,297.257538 466.864563,297.200592 
	C465.754791,297.845062 464.930847,298.546478 464.106873,299.247864 
	C464.106873,299.247833 464.088501,299.128052 463.808655,299.109924 
	C463.050293,299.481354 462.571808,299.870850 462.093292,300.260345 
	C462.093292,300.260345 462.080200,300.125977 461.782684,300.114014 
	C460.011200,301.127594 458.537231,302.153137 457.063232,303.178680 
	C457.063232,303.178680 457.057495,303.078979 456.732178,303.060120 
	C455.623108,303.729736 454.839325,304.418182 454.055511,305.106598 
	C454.055511,305.106598 454.029816,305.022949 453.745911,305.051331 
	C452.992889,305.448181 452.523834,305.816589 452.054749,306.184998 
	C452.054749,306.184998 452.055817,306.077576 451.734039,306.061218 
	C450.623260,306.725952 449.834259,307.407043 449.045288,308.088135 
	C449.045288,308.088135 449.019196,308.010468 448.733643,308.044586 
	C447.985626,308.452759 447.523163,308.826813 447.060699,309.200867 
	C447.060699,309.200867 447.058838,309.085052 446.776062,309.087646 
	C446.043640,309.505524 445.593994,309.920837 445.144318,310.336121 
	C445.144318,310.336121 445.115570,310.188171 444.835449,310.157166 
	C443.723755,310.808319 442.892181,311.490479 442.060608,312.172638 
	C442.060608,312.172638 442.057587,312.073853 441.769836,312.080261 
	C441.032288,312.496033 440.582520,312.905426 440.132751,313.314819 
	C440.132721,313.314789 440.111877,313.171387 439.829102,313.150940 
	C439.149170,313.585999 438.752014,314.041473 438.354828,314.496948 
	C438.354828,314.496948 438.303375,314.486969 437.944336,314.340118 
	C436.186157,315.288757 434.786987,316.384247 433.387848,317.479736 
	C433.387848,317.479736 433.366638,317.419800 432.992554,317.304810 
	C431.773315,317.863831 430.928162,318.537811 430.083008,319.211792 
	C430.083008,319.211823 430.072083,319.101318 429.743958,319.073853 
	C428.463135,319.867279 427.510437,320.688171 426.557739,321.509033 
	C426.557709,321.509033 426.444458,321.506622 426.108459,321.423950 
	C425.540192,321.625824 425.307922,321.910370 425.075623,322.194946 
	C425.075623,322.194946 425.068604,322.091614 424.727173,322.065582 
	C421.671356,323.827148 418.956940,325.614746 416.242493,327.402344 
	C416.242493,327.402344 416.166016,327.299164 415.874847,327.224182 
	C414.752899,327.840637 413.922089,328.532013 413.091309,329.223389 
	C413.091309,329.223419 413.078613,329.109833 412.763062,329.081909 
	C411.634247,329.709686 410.820923,330.365356 410.007629,331.021057 
	C410.007629,331.021057 410.006775,330.994598 409.653534,331.011353 
	C408.750031,331.534882 408.199768,332.041626 407.649475,332.548340 
	C407.649475,332.548340 407.502747,332.652832 407.105103,332.488586 
	C404.230957,334.023193 401.754395,335.722015 399.277863,337.420868 
	C399.277863,337.420868 399.182098,337.281403 398.973969,337.283203 
	C398.526276,337.568604 398.286743,337.852142 398.047180,338.135712 
	C398.047180,338.135712 398.048889,338.052795 397.764954,338.065857 
	C397.000122,338.435669 396.519257,338.792450 396.038391,339.149231 
	C396.038391,339.149231 396.041931,339.059692 395.717102,339.043396 
	C393.952820,340.083069 392.513428,341.139069 391.074036,342.195068 
	C391.074036,342.195068 391.063965,342.090424 390.712952,342.069031 
	C388.629120,342.967590 385.120819,341.490784 385.685303,345.511993 
	C385.685303,345.511993 385.510376,345.552521 385.142822,345.447784 
	C384.545807,345.632812 384.316284,345.922546 384.086792,346.212311 
	C384.086792,346.212311 384.078339,346.102692 383.758606,346.078796 
	C381.983704,347.100861 380.528534,348.146759 379.073334,349.192688 
	C379.073334,349.192688 379.068573,349.089294 378.749390,349.065796 
	C376.964081,350.061005 375.497955,351.079681 374.031799,352.098358 
	C374.031799,352.098358 374.027863,352.020660 373.738159,352.051788 
	C372.994629,352.469574 372.540741,352.856232 372.086884,353.242889 
	C372.086884,353.242889 372.081085,353.116211 371.759094,353.084290 
	C370.474335,353.869873 369.511566,354.687347 368.548767,355.504822 
	C368.548767,355.504822 368.444489,355.498474 368.109192,355.418274 
	C367.541626,355.623779 367.309357,355.909485 367.077057,356.195160 
	C367.077057,356.195160 367.071869,356.091034 366.736206,356.070557 
	C364.966827,357.089050 363.533173,358.128052 362.099487,359.167053 
	C362.099487,359.167053 362.056458,359.074890 361.773376,359.082123 
	C361.020874,359.473206 360.551483,359.857056 360.082092,360.240906 
	C360.082062,360.240875 360.076233,360.111542 359.791931,360.101501 
	C358.684906,360.768524 357.862152,361.445618 357.039398,362.122711 
	C357.039398,362.122711 357.035095,362.041840 356.746124,362.059998 
	C356.002533,362.471893 355.547943,362.865662 355.093323,363.259460 
	C355.093323,363.259430 355.084717,363.123688 354.796417,363.111206 
	C353.709381,363.817535 352.910675,364.536377 352.111969,365.255219 
	C352.111969,365.255219 352.092133,365.134766 351.763550,365.096436 
	C349.994049,366.099792 348.553131,367.141541 347.112213,368.183289 
	C347.112213,368.183289 347.073151,368.089447 346.778564,368.090942 
	C346.079468,368.543457 345.674988,368.994476 345.270508,369.445496 
	C345.270508,369.445496 345.172852,369.297333 344.970337,369.291443 
	C344.525024,369.563507 344.282166,369.841431 344.039307,370.119385 
	C344.039337,370.119385 344.038086,370.038361 343.750031,370.058807 
	C342.999390,370.461151 342.536804,370.843079 342.074219,371.225006 
	C342.074219,371.225006 342.069458,371.100159 341.782318,371.102600 
	C341.163452,371.577484 340.831726,372.049927 340.500000,372.522369 
	C340.500000,372.522369 340.397156,372.512054 339.975525,372.352539 
	C338.819855,372.930695 338.085846,373.668396 337.351868,374.406097 
	C337.351868,374.406097 337.096191,374.281067 336.864319,374.239746 
	C336.112823,374.880249 335.593201,375.562073 335.073547,376.243896 
	C335.062439,376.578064 334.905457,376.816101 334.039795,377.018127 
	C333.148926,377.556976 332.820923,378.035614 332.492920,378.514221 
	C332.492889,378.514221 332.467773,378.486023 332.075531,378.416443 
	C330.802795,379.590210 329.922302,380.833557 329.041840,382.076904 
	C329.041840,382.076904 329.002960,382.018433 328.793091,382.128021 
	C328.407196,382.539673 328.231171,382.841766 328.055145,383.143829 
	C328.055145,383.143829 328.043182,383.040833 327.838165,383.146179 
	C327.443024,383.556488 327.252899,383.861450 327.062805,384.166412 
	C327.062805,384.166412 327.064697,384.066620 326.754822,384.088562 
	C325.658844,385.452850 324.872711,386.795258 324.086548,388.137665 
	C324.086578,388.137665 324.052246,388.048248 323.727722,388.082397 
	C322.970734,389.129639 322.538208,390.142731 322.105713,391.155823 
	C322.105682,391.155823 322.079651,391.057770 321.789124,391.166534 
	C317.067657,396.007843 315.320740,401.770874 315.040405,408.096954 
	C314.926819,409.958496 314.813263,411.820068 314.328125,413.660767 
	C313.743164,413.474823 313.529724,413.309753 313.316284,413.144684 
	C313.217224,413.404724 313.031860,413.664612 313.031464,413.924774 
	C313.011230,426.966064 313.000366,440.007416 313.046875,453.048553 
	C313.047791,453.311310 313.737823,453.571625 314.106354,453.833069 
	C315.212708,457.768036 316.035858,461.810242 317.478302,465.617889 
	C321.847260,477.150635 329.218506,486.028015 340.061523,492.375122 
	C379.235809,515.306274 418.232635,538.540894 457.285248,561.679749 
	C491.342346,581.858765 525.442261,601.966614 559.401672,622.308777 
	C571.383057,629.485840 571.732910,644.405762 559.893005,652.038086 
	C547.247253,660.189819 534.248474,667.853638 521.026550,675.036072 
	C505.626953,683.401306 490.034576,681.885132 475.229523,673.271851 
	C411.793396,636.366089 348.411682,599.366150 285.120789,562.212036 
	C271.715637,554.342651 258.585388,545.964355 245.680862,537.295898 
	C235.333008,530.344849 228.802704,520.152222 224.447540,508.054871 
	C223.782059,502.262360 222.157654,497.096771 222.130630,491.922821 
	C221.918549,451.316803 222.010345,410.709198 222.016388,370.102081 
	C222.016785,367.408478 222.081940,364.714874 222.116974,362.021271 
	C226.982483,338.949097 240.050293,321.307861 259.967987,309.593353 
	C311.231659,279.442810 362.955963,250.075668 414.483215,220.372940 
	C434.134277,209.045120 453.515900,197.218933 473.498505,186.512375 
	C481.353241,182.303833 490.348877,179.730270 499.135284,177.910797 
	C506.220856,176.443512 513.772888,177.228806 521.709106,177.285126 
	C522.533630,177.771118 522.807373,177.902679 523.121582,177.950180 
	C523.121582,177.950180 523.018799,177.969971 523.260498,178.237366 
	C529.709412,179.645081 535.916626,180.785400 542.123779,181.925720 
	C542.123779,181.925720 542.027649,181.948532 542.220581,182.210495 
	C543.360229,182.542816 544.307007,182.613159 545.253723,182.683517 
	C545.253723,182.683517 545.195740,182.589828 545.238770,182.860352 
	C545.849792,183.130447 546.417664,183.130035 546.985596,183.129639 
z" data-index="2"></path>
<path fill="#075CCD" opacity="1.000000" stroke="none" d="
M221.950745,362.310364 
	C222.081940,364.714874 222.016785,367.408478 222.016388,370.102081 
	C222.010345,410.709198 221.918549,451.316803 222.130630,491.922821 
	C222.157654,497.096771 223.782059,502.262360 224.412018,507.696716 
	C222.774582,500.272491 220.287262,492.596344 220.196808,484.892090 
	C219.771194,448.638489 219.941208,412.376953 220.079407,376.118958 
	C220.096588,371.610352 221.189865,367.105865 221.950745,362.310364 
z" data-index="3"></path>
<path fill="#085ACD" opacity="1.000000" stroke="none" d="
M225.019989,599.544312 
	C224.135864,600.950806 222.155258,602.055969 222.144302,603.180359 
	C221.960831,621.984619 221.633102,640.804199 222.255219,659.590027 
	C222.457581,665.700317 225.264008,671.729431 226.921646,677.784058 
	C227.530258,680.007080 228.260986,682.196594 228.883163,684.803711 
	C223.071335,675.504517 220.478394,664.766785 220.153015,653.727539 
	C219.638428,636.268066 220.006989,618.782288 220.034286,601.307678 
	C220.036224,600.064270 220.303833,598.821289 220.528763,596.880371 
	C222.379776,597.898621 223.609909,598.575317 225.019989,599.544312 
z" data-index="4"></path>
<path fill="#0C51C9" opacity="1.000000" stroke="none" d="
M476.354950,843.005371 
	C480.841553,844.011047 485.708893,844.992920 490.470825,846.345764 
	C507.959595,851.314331 525.249023,849.998901 542.470276,845.020813 
	C544.037964,844.567688 545.675659,844.356506 547.696167,844.049561 
	C533.457825,850.988770 517.854309,852.381653 502.162415,850.340149 
	C493.505493,849.213928 485.168518,845.628540 476.354950,843.005371 
z" data-index="5"></path>
<path fill="#0031C2" opacity="1.000000" stroke="none" d="
M805.976868,656.525757 
	C805.593018,655.744141 805.053955,654.502380 805.052124,653.259888 
	C805.004883,620.855347 805.011047,588.450806 805.025757,556.046204 
	C805.026123,555.229919 805.226135,554.413818 805.626465,553.301270 
	C805.970642,587.358337 806.021301,621.711853 805.976868,656.525757 
z" data-index="6"></path>
<path fill="#1258CC" opacity="1.000000" stroke="none" d="
M539.080627,360.361755 
	C538.497375,360.568726 537.593323,360.733093 536.899963,360.424255 
	C523.838623,354.607452 510.594696,354.303955 497.149109,358.944336 
	C496.704102,359.097900 496.157166,358.956146 495.239441,358.907959 
	C509.717163,351.534241 524.371704,352.815186 539.080627,360.361755 
z" data-index="7"></path>
<path fill="#0A55CC" opacity="1.000000" stroke="none" d="
M497.692444,279.357483 
	C497.404724,279.151428 497.382111,278.679352 497.582306,278.548737 
	C505.543427,273.353302 526.148376,271.899994 534.831177,279.820923 
	C522.780457,274.702087 510.479980,274.580261 497.692444,279.357483 
z" data-index="8"></path>
<path fill="#0031C1" opacity="1.000000" stroke="none" d="
M804.487915,436.863464 
	C804.373901,434.857971 804.953369,432.932007 804.969482,431.001312 
	C805.132141,411.567444 805.202332,392.132782 805.567017,372.391907 
	C805.925659,393.107178 806.025818,414.128906 806.056213,435.150696 
	C806.057068,435.746887 805.315308,436.344086 804.487915,436.863464 
z" data-index="9"></path>
<path fill="#003AC0" opacity="1.000000" stroke="none" d="
M314.094971,453.375702 
	C313.737823,453.571625 313.047791,453.311310 313.046875,453.048553 
	C313.000366,440.007416 313.011230,426.966064 313.031464,413.924774 
	C313.031860,413.664612 313.217224,413.404724 313.316284,413.144684 
	C313.529724,413.309753 313.743164,413.474823 314.042938,413.939880 
	C314.114075,427.132660 314.098846,440.025482 314.094971,453.375702 
z" data-index="10"></path>
<path fill="#0642C5" opacity="1.000000" stroke="none" d="
M654.809082,627.485657 
	C655.085144,633.828552 655.560303,640.639038 655.599182,647.452026 
	C655.613892,650.027710 654.620667,652.609131 653.730103,655.574890 
	C653.170410,655.947083 652.967468,655.932312 652.764587,655.917542 
	C653.454590,646.596436 654.144592,637.275391 654.809082,627.485657 
z" data-index="11"></path>
<path fill="#0C50C9" opacity="1.000000" stroke="none" d="
M541.945435,181.604218 
	C535.916626,180.785400 529.709412,179.645081 523.256104,178.185211 
	C529.262329,179.004684 535.514648,180.143692 541.945435,181.604218 
z" data-index="12"></path>
<path fill="#0A55CC" opacity="1.000000" stroke="none" d="
M315.277039,407.818054 
	C315.320740,401.770874 317.067657,396.007843 321.839783,391.168945 
	C319.958527,396.554779 317.736084,402.046997 315.277039,407.818054 
z" data-index="13"></path>
<path fill="#0642C5" opacity="1.000000" stroke="none" d="
M650.797974,613.458984 
	C652.138977,617.476746 653.549072,621.881531 654.925049,626.728516 
	C653.549561,622.729126 652.208252,618.287537 650.797974,613.458984 
z" data-index="14"></path>
<path fill="#0C51C9" opacity="1.000000" stroke="none" d="
M550.444946,843.150208 
	C553.182739,841.490112 556.285278,839.767517 559.775818,838.077637 
	C557.045776,839.769531 553.927734,841.428650 550.444946,843.150208 
z" data-index="15"></path>
<path fill="#0A55CC" opacity="1.000000" stroke="none" d="
M416.585083,327.313904 
	C418.956940,325.614746 421.671356,323.827148 424.776917,322.079956 
	C422.421265,323.822052 419.674469,325.523773 416.585083,327.313904 
z" data-index="16"></path>
<path fill="#0A55CC" opacity="1.000000" stroke="none" d="
M399.614563,337.317474 
	C401.754395,335.722015 404.230957,334.023193 407.033600,332.543335 
	C404.890259,334.246216 402.420776,335.730133 399.614563,337.317474 
z" data-index="17"></path>
<path fill="#0A50CA" opacity="1.000000" stroke="none" d="
M652.477173,656.133240 
	C652.967468,655.932312 653.170410,655.947083 653.678101,655.976074 
	C652.814514,658.564514 651.646179,661.138794 650.131592,663.820740 
	C650.586853,661.401917 651.388306,658.875427 652.477173,656.133240 
z" data-index="18"></path>
<path fill="#1258CC" opacity="1.000000" stroke="none" d="
M550.100830,367.036072 
	C547.979492,365.988983 545.626099,364.751190 543.162842,363.181641 
	C545.324890,364.181671 547.596863,365.513519 550.100830,367.036072 
z" data-index="19"></path>
<path fill="#0C51C9" opacity="1.000000" stroke="none" d="
M622.398926,802.092041 
	C624.150085,800.781372 626.247864,799.407776 628.732971,798.053833 
	C626.995361,799.391968 624.870361,800.710510 622.398926,802.092041 
z" data-index="20"></path>
<path fill="#0A55CC" opacity="1.000000" stroke="none" d="
M540.866577,283.822174 
	C542.675476,284.573730 544.702698,285.547577 546.825012,286.866089 
	C544.975037,286.155334 543.029907,285.099884 540.866577,283.822174 
z" data-index="21"></path>
<path fill="#0A55CC" opacity="1.000000" stroke="none" d="
M483.803833,287.361694 
	C485.490906,286.028839 487.475342,284.563232 489.831543,283.123352 
	C488.169312,284.509064 486.135284,285.868988 483.803833,287.361694 
z" data-index="22"></path>
<path fill="#0A55CC" opacity="1.000000" stroke="none" d="
M471.379456,295.061523 
	C472.884399,293.806396 474.727631,292.486389 476.936096,291.260681 
	C475.440125,292.568848 473.578918,293.782715 471.379456,295.061523 
z" data-index="23"></path>
<path fill="#0C51C9" opacity="1.000000" stroke="none" d="
M605.025391,812.346619 
	C606.302917,811.342896 607.843018,810.187134 609.764160,809.062744 
	C608.526062,810.127625 606.907043,811.161133 605.025391,812.346619 
z" data-index="24"></path>
<path fill="#085ACD" opacity="1.000000" stroke="none" d="
M248.957520,613.619995 
	C247.204697,613.028809 245.284256,612.140503 243.412292,610.870300 
	C245.237137,611.433228 247.013519,612.378052 248.957520,613.619995 
z" data-index="25"></path>
<path fill="#0A55CC" opacity="1.000000" stroke="none" d="
M385.965851,345.376465 
	C385.120819,341.490784 388.629120,342.967590 390.764099,342.081238 
	C389.526306,343.156891 387.886353,344.198914 385.965851,345.376465 
z" data-index="26"></path>
<path fill="#0A55CC" opacity="1.000000" stroke="none" d="
M362.431183,359.101135 
	C363.533173,358.128052 364.966827,357.089050 366.785950,356.086060 
	C365.701904,357.093109 364.232391,358.064148 362.431183,359.101135 
z" data-index="27"></path>
<path fill="#0C51C9" opacity="1.000000" stroke="none" d="
M569.388428,833.020996 
	C570.497620,832.097961 571.925659,831.070435 573.734375,830.055054 
	C572.645813,831.016968 571.176514,831.966675 569.388428,833.020996 
z" data-index="28"></path>
<path fill="#0A55CC" opacity="1.000000" stroke="none" d="
M571.042969,301.377747 
	C572.768860,301.981079 574.673340,302.874542 576.537292,304.133179 
	C574.738403,303.554840 572.979980,302.611359 571.042969,301.377747 
z" data-index="29"></path>
<path fill="#1258CC" opacity="1.000000" stroke="none" d="
M565.897339,376.676575 
	C564.434937,376.162079 562.775208,375.382385 561.093262,374.239044 
	C562.614075,374.720734 564.157104,375.566040 565.897339,376.676575 
z" data-index="30"></path>
<path fill="#0C51C9" opacity="1.000000" stroke="none" d="
M617.413940,805.074219 
	C618.515259,804.115417 619.944092,803.078430 621.755615,802.064697 
	C620.672729,803.057251 619.207153,804.026611 617.413940,805.074219 
z" data-index="31"></path>
<path fill="#0A55CC" opacity="1.000000" stroke="none" d="
M347.441711,368.105713 
	C348.553131,367.141541 349.994049,366.099792 351.822632,365.111877 
	C350.730530,366.119843 349.250854,367.074005 347.441711,368.105713 
z" data-index="32"></path>
<path fill="#1258CC" opacity="1.000000" stroke="none" d="
M555.959595,370.616608 
	C554.251282,369.995483 552.363281,369.087067 550.573975,367.823242 
	C552.375122,368.421661 554.077515,369.375488 555.959595,370.616608 
z" data-index="33"></path>
<path fill="#085ACD" opacity="1.000000" stroke="none" d="
M237.024750,606.537720 
	C235.301392,605.946228 233.388321,605.073120 231.582962,603.846069 
	C233.405457,604.413452 235.120239,605.334778 237.024750,606.537720 
z" data-index="34"></path>
<path fill="#1258CC" opacity="1.000000" stroke="none" d="
M587.937683,389.644257 
	C586.446045,389.160065 584.779114,388.392609 583.082336,387.262939 
	C584.622437,387.720825 586.192444,388.540924 587.937683,389.644257 
z" data-index="35"></path>
<path fill="#0A55CC" opacity="1.000000" stroke="none" d="
M374.369812,352.049408 
	C375.497955,351.079681 376.964081,350.061005 378.798889,349.080994 
	C377.680969,350.079926 376.194366,351.040192 374.369812,352.049408 
z" data-index="36"></path>
<path fill="#0A55CC" opacity="1.000000" stroke="none" d="
M379.400940,349.100189 
	C380.528534,348.146759 381.983704,347.100861 383.811218,346.094727 
	C382.698547,347.092255 381.213531,348.049988 379.400940,349.100189 
z" data-index="37"></path>
<path fill="#0C51C9" opacity="1.000000" stroke="none" d="
M610.388916,809.089722 
	C611.511719,808.125854 612.967407,807.084229 614.793213,806.076904 
	C613.682922,807.078186 612.202393,808.045105 610.388916,809.089722 
z" data-index="38"></path>
<path fill="#1258CC" opacity="1.000000" stroke="none" d="
M596.775208,394.776184 
	C595.703186,394.506348 594.405212,394.005859 593.108521,393.166351 
	C594.256287,393.400085 595.402771,393.972839 596.775208,394.776184 
z" data-index="39"></path>
<path fill="#0C51C9" opacity="1.000000" stroke="none" d="
M574.377075,830.074707 
	C575.499329,829.091675 576.961243,828.065063 578.791870,827.073853 
	C577.679260,828.083252 576.197937,829.057190 574.377075,830.074707 
z" data-index="40"></path>
<path fill="#1258CC" opacity="1.000000" stroke="none" d="
M560.945068,373.633362 
	C559.508545,373.119293 557.896423,372.320404 556.171204,371.182068 
	C557.628601,371.677887 559.199036,372.513245 560.945068,373.633362 
z" data-index="41"></path>
<path fill="#0A55CC" opacity="1.000000" stroke="none" d="
M433.694641,317.367065 
	C434.786987,316.384247 436.186157,315.288757 437.949463,314.314392 
	C436.876221,315.375153 435.438843,316.314789 433.694641,317.367065 
z" data-index="42"></path>
<path fill="#0A55CC" opacity="1.000000" stroke="none" d="
M391.407928,342.120361 
	C392.513428,341.139069 393.952820,340.083069 395.759949,339.056458 
	C394.665710,340.072479 393.203766,341.059082 391.407928,342.120361 
z" data-index="43"></path>
<path fill="#085ACD" opacity="1.000000" stroke="none" d="
M229.911682,687.391968 
	C230.876862,688.530396 231.904022,690.005676 232.870010,691.853760 
	C231.863770,690.727356 230.918716,689.228088 229.911682,687.391968 
z" data-index="44"></path>
<path fill="#0A50CA" opacity="1.000000" stroke="none" d="
M648.579834,665.985596 
	C648.072510,667.455017 647.271362,669.089478 646.115967,670.815979 
	C646.603149,669.322266 647.444519,667.736450 648.579834,665.985596 
z" data-index="45"></path>
<path fill="#0C51C9" opacity="1.000000" stroke="none" d="
M629.376160,798.073120 
	C630.503357,797.101746 631.966492,796.073608 633.799683,795.082031 
	C632.683899,796.084534 631.197998,797.050537 629.376160,798.073120 
z" data-index="46"></path>
<path fill="#0C51C9" opacity="1.000000" stroke="none" d="
M562.365967,837.041382 
	C563.487549,836.085083 564.942627,835.062439 566.764404,834.061157 
	C565.653870,835.046631 564.176636,836.010864 562.365967,837.041382 
z" data-index="47"></path>
<path fill="#0A55CC" opacity="1.000000" stroke="none" d="
M329.301941,381.892883 
	C329.922302,380.833557 330.802795,379.590210 332.059021,378.407288 
	C331.477173,379.548096 330.519592,380.628479 329.301941,381.892883 
z" data-index="48"></path>
<path fill="#0A50CA" opacity="1.000000" stroke="none" d="
M645.568176,670.948853 
	C645.081665,672.158936 644.306946,673.521301 643.169373,674.882568 
	C643.630981,673.621338 644.455444,672.361145 645.568176,670.948853 
z" data-index="49"></path>
<path fill="#0642C5" opacity="1.000000" stroke="none" d="
M648.610840,609.333496 
	C649.303284,610.207703 650.116394,611.359802 650.882568,612.868408 
	C650.134277,612.020447 649.432922,610.815918 648.610840,609.333496 
z" data-index="50"></path>
<path fill="#0A55CC" opacity="1.000000" stroke="none" d="
M457.400818,303.110718 
	C458.537231,302.153137 460.011200,301.127594 461.848083,300.130676 
	C460.720123,301.120483 459.229248,302.081604 457.400818,303.110718 
z" data-index="51"></path>
<path fill="#0A55CC" opacity="1.000000" stroke="none" d="
M577.988403,305.397705 
	C579.180176,305.777771 580.532959,306.431244 581.938599,307.432983 
	C580.710815,307.077850 579.430054,306.374451 577.988403,305.397705 
z" data-index="52"></path>
<path fill="#0A55CC" opacity="1.000000" stroke="none" d="
M547.007690,287.402618 
	C548.453308,287.907654 550.088562,288.689575 551.842712,289.800842 
	C550.373474,289.313293 548.785400,288.496399 547.007690,287.402618 
z" data-index="53"></path>
<path fill="#0A55CC" opacity="1.000000" stroke="none" d="
M324.371246,387.980164 
	C324.872711,386.795258 325.658844,385.452850 326.802399,384.103699 
	C326.325195,385.338837 325.490570,386.580719 324.371246,387.980164 
z" data-index="54"></path>
<path fill="#1258CC" opacity="1.000000" stroke="none" d="
M593.000854,392.590393 
	C591.888000,392.355560 590.616455,391.830048 589.342285,390.920532 
	C590.507141,391.124268 591.674683,391.712006 593.000854,392.590393 
z" data-index="55"></path>
<path fill="#0A55CC" opacity="1.000000" stroke="none" d="
M564.076904,297.340393 
	C565.159851,297.583527 566.426331,298.103363 567.752319,298.993652 
	C566.627930,298.781738 565.444214,298.199402 564.076904,297.340393 
z" data-index="56"></path>
<path fill="#0A55CC" opacity="1.000000" stroke="none" d="
M426.836609,321.381287 
	C427.510437,320.688171 428.463135,319.867279 429.797729,319.087799 
	C429.158234,319.837280 428.136841,320.545380 426.836609,321.381287 
z" data-index="57"></path>
<path fill="#0C51C9" opacity="1.000000" stroke="none" d="
M582.513428,825.274231 
	C583.253357,824.581238 584.319458,823.806702 585.759216,823.057495 
	C585.035095,823.786133 583.937317,824.489441 582.513428,825.274231 
z" data-index="58"></path>
<path fill="#0C51C9" opacity="1.000000" stroke="none" d="
M587.834595,822.399536 
	C588.503723,821.694702 589.454529,820.865356 590.786621,820.076050 
	C590.150696,820.835815 589.133484,821.555359 587.834595,822.399536 
z" data-index="59"></path>
<path fill="#0A55CC" opacity="1.000000" stroke="none" d="
M368.830444,355.379578 
	C369.511566,354.687347 370.474335,353.869873 371.819519,353.103424 
	C371.172028,353.854431 370.142090,354.554413 368.830444,355.379578 
z" data-index="60"></path>
<path fill="#1258CC" opacity="1.000000" stroke="none" d="
M575.987000,382.607056 
	C574.887146,382.356689 573.621033,381.823181 572.372192,380.905640 
	C573.533203,381.122406 574.677002,381.723175 575.987000,382.607056 
z" data-index="61"></path>
<path fill="#1258CC" opacity="1.000000" stroke="none" d="
M581.021057,385.573669 
	C579.916077,385.321777 578.646606,384.788239 577.429871,383.868591 
	C578.607300,384.085632 579.731873,384.688812 581.021057,385.573669 
z" data-index="62"></path>
<path fill="#0C51C9" opacity="1.000000" stroke="none" d="
M592.907837,819.420532 
	C593.565247,818.711731 594.499268,817.881531 595.817688,817.101685 
	C595.196228,817.867676 594.190308,818.583435 592.907837,819.420532 
z" data-index="63"></path>
<path fill="#0A55CC" opacity="1.000000" stroke="none" d="
M322.386475,391.007874 
	C322.538208,390.142731 322.970734,389.129639 323.772766,388.098694 
	C323.650574,389.007233 323.158905,389.933594 322.386475,391.007874 
z" data-index="64"></path>
<path fill="#0A55CC" opacity="1.000000" stroke="none" d="
M337.637482,374.315125 
	C338.085846,373.668396 338.819855,372.930695 339.928894,372.374817 
	C339.510315,373.112457 338.716705,373.668304 337.637482,374.315125 
z" data-index="65"></path>
<path fill="#0A55CC" opacity="1.000000" stroke="none" d="
M559.002136,294.384888 
	C559.853577,294.519806 560.872253,294.924225 561.933899,295.690247 
	C561.041016,295.585999 560.105225,295.120209 559.002136,294.384888 
z" data-index="66"></path>
<path fill="#0A55CC" opacity="1.000000" stroke="none" d="
M536.969543,281.429962 
	C538.066223,281.691956 539.332336,282.237732 540.580444,283.149841 
	C539.421326,282.915375 538.280151,282.314545 536.969543,281.429962 
z" data-index="67"></path>
<path fill="#085ACD" opacity="1.000000" stroke="none" d="
M252.080231,615.505981 
	C251.205017,615.394958 250.167038,615.003845 249.101624,614.240112 
	C250.021942,614.320251 250.969711,614.773071 252.080231,615.505981 
z" data-index="68"></path>
<path fill="#0A55CC" opacity="1.000000" stroke="none" d="
M490.422974,283.157532 
	C491.182007,282.504211 492.263000,281.766663 493.709656,281.036072 
	C492.965179,281.719788 491.855072,282.396545 490.422974,283.157532 
z" data-index="69"></path>
<path fill="#1258CC" opacity="1.000000" stroke="none" d="
M542.972412,362.620880 
	C541.879395,362.364380 540.625061,361.815430 539.325439,360.910156 
	C540.457153,361.145355 541.634155,361.736877 542.972412,362.620880 
z" data-index="70"></path>
<path fill="#0A55CC" opacity="1.000000" stroke="none" d="
M410.325043,330.978394 
	C410.820923,330.365356 411.634247,329.709686 412.818298,329.096619 
	C412.340149,329.738098 411.491302,330.336914 410.325043,330.978394 
z" data-index="71"></path>
<path fill="#085ACD" opacity="1.000000" stroke="none" d="
M259.754944,619.858398 
	C259.099274,619.758240 258.209167,619.465149 257.378296,618.840576 
	C258.131866,618.894653 258.826172,619.280090 259.754944,619.858398 
z" data-index="72"></path>
<path fill="#0A55CC" opacity="1.000000" stroke="none" d="
M449.360443,308.036743 
	C449.834259,307.407043 450.623260,306.725952 451.785522,306.076569 
	C451.331024,306.733978 450.503326,307.359650 449.360443,308.036743 
z" data-index="73"></path>
<path fill="#0A55CC" opacity="1.000000" stroke="none" d="
M454.366089,305.038208 
	C454.839325,304.418182 455.623108,303.729736 456.780579,303.072510 
	C456.328369,303.725739 455.502502,304.347778 454.366089,305.038208 
z" data-index="74"></path>
<path fill="#0A55CC" opacity="1.000000" stroke="none" d="
M442.373779,312.098907 
	C442.892181,311.490479 443.723755,310.808319 444.908234,310.176758 
	C444.403076,310.826630 443.545013,311.425903 442.373779,312.098907 
z" data-index="75"></path>
<path fill="#0A55CC" opacity="1.000000" stroke="none" d="
M430.391541,319.138397 
	C430.928162,318.537811 431.773315,317.863831 432.963593,317.317932 
	C432.439209,317.985687 431.569672,318.525360 430.391541,319.138397 
z" data-index="76"></path>
<path fill="#085ACD" opacity="1.000000" stroke="none" d="
M257.089478,618.301392 
	C256.291290,618.166809 255.290070,617.805969 254.203018,617.094604 
	C255.040283,617.187744 255.963364,617.631470 257.089478,618.301392 
z" data-index="77"></path>
<path fill="#0C51C9" opacity="1.000000" stroke="none" d="
M598.399048,816.142761 
	C598.928955,815.536621 599.767822,814.849915 600.958740,814.268433 
	C600.443176,814.936401 599.575623,815.499268 598.399048,816.142761 
z" data-index="78"></path>
<path fill="#0A55CC" opacity="1.000000" stroke="none" d="
M413.402283,329.146118 
	C413.922089,328.532013 414.752899,327.840637 415.938782,327.230042 
	C415.433716,327.896851 414.573486,328.482849 413.402283,329.146118 
z" data-index="79"></path>
<path fill="#1258CC" opacity="1.000000" stroke="none" d="
M572.087952,380.293030 
	C571.292786,380.173157 570.289734,379.825470 569.185059,379.134827 
	C570.015564,379.216278 570.947876,379.640778 572.087952,380.293030 
z" data-index="80"></path>
<path fill="#1258CC" opacity="1.000000" stroke="none" d="
M569.025391,378.585541 
	C568.207642,378.427338 567.240967,377.983093 566.152466,377.220581 
	C566.979187,377.368073 567.927795,377.833771 569.025391,378.585541 
z" data-index="81"></path>
<path fill="#0A55CC" opacity="1.000000" stroke="none" d="
M335.360046,376.133240 
	C335.593201,375.562073 336.112823,374.880249 337.002319,374.274475 
	C336.796967,374.907867 336.221771,375.465210 335.360046,376.133240 
z" data-index="82"></path>
<path fill="#0C51C9" opacity="1.000000" stroke="none" d="
M579.382629,827.118652 
	C579.901733,826.501892 580.737854,825.816711 581.928467,825.195190 
	C581.421875,825.856018 580.560791,826.453125 579.382629,827.118652 
z" data-index="83"></path>
<path fill="#0A55CC" opacity="1.000000" stroke="none" d="
M464.418365,299.168396 
	C464.930847,298.546478 465.754791,297.845062 466.935394,297.218994 
	C466.437958,297.892487 465.583893,298.490692 464.418365,299.168396 
z" data-index="84"></path>
<path fill="#0A55CC" opacity="1.000000" stroke="none" d="
M352.426819,365.178619 
	C352.910675,364.536377 353.709381,363.817535 354.861694,363.130310 
	C354.390717,363.808594 353.566193,364.455292 352.426819,365.178619 
z" data-index="85"></path>
<path fill="#0C51C9" opacity="1.000000" stroke="none" d="
M634.393250,795.138428 
	C634.895020,794.501770 635.716980,793.806030 636.892944,793.155334 
	C636.402405,793.826721 635.557922,794.453003 634.393250,795.138428 
z" data-index="86"></path>
<path fill="#0A55CC" opacity="1.000000" stroke="none" d="
M357.356506,362.058838 
	C357.862152,361.445618 358.684906,360.768524 359.854095,360.119629 
	C359.358215,360.763519 358.515900,361.379242 357.356506,362.058838 
z" data-index="87"></path>
<path fill="#0A55CC" opacity="1.000000" stroke="none" d="
M407.905823,332.435638 
	C408.199768,332.041626 408.750031,331.534882 409.664185,331.020111 
	C409.406097,331.449036 408.784119,331.885986 407.905823,332.435638 
z" data-index="88"></path>
<path fill="#0C50C9" opacity="1.000000" stroke="none" d="
M545.026855,182.417938 
	C544.307007,182.613159 543.360229,182.542816 542.218201,182.161118 
	C542.948608,181.950623 543.874329,182.051483 545.026855,182.417938 
z" data-index="89"></path>
<path fill="#085ACD" opacity="1.000000" stroke="none" d="
M234.884628,695.371216 
	C235.330963,695.626892 235.848175,696.170105 236.166046,696.868896 
	C235.629639,696.569275 235.292572,696.114014 234.884628,695.371216 
z" data-index="90"></path>
<path fill="#0642C5" opacity="1.000000" stroke="none" d="
M646.550781,606.305908 
	C646.942017,606.554382 647.440247,607.044678 647.955322,607.830200 
	C647.533997,607.599548 647.095825,607.073608 646.550781,606.305908 
z" data-index="91"></path>
<path fill="#0A50CA" opacity="1.000000" stroke="none" d="
M640.665039,677.010559 
	C640.477783,677.557800 640.018738,678.233276 639.217041,678.936218 
	C639.380676,678.355347 639.886963,677.747070 640.665039,677.010559 
z" data-index="92"></path>
<path fill="#0C51C9" opacity="1.000000" stroke="none" d="
M601.566895,814.362183 
	C601.676208,813.995544 602.075745,813.544983 602.817749,813.098694 
	C602.725769,813.494751 602.291443,813.886536 601.566895,814.362183 
z" data-index="93"></path>
<path fill="#0A50CA" opacity="1.000000" stroke="none" d="
M649.596313,663.973206 
	C649.715271,664.438782 649.552368,665.053528 649.085266,665.804321 
	C648.958862,665.334351 649.136719,664.728394 649.596313,663.973206 
z" data-index="94"></path>
<path fill="#0A50CA" opacity="1.000000" stroke="none" d="
M633.512573,683.693542 
	C633.391663,684.053589 632.973145,684.486206 632.219849,684.927002 
	C632.328369,684.545471 632.771606,684.155823 633.512573,683.693542 
z" data-index="95"></path>
<path fill="#085ACD" opacity="1.000000" stroke="none" d="
M226.979156,600.637329 
	C226.526779,600.729431 225.926010,600.547424 225.206985,600.058350 
	C225.669403,599.955200 226.250107,600.159180 226.979156,600.637329 
z" data-index="96"></path>
<path fill="#085ACD" opacity="1.000000" stroke="none" d="
M230.078705,602.539429 
	C229.609543,602.626709 228.987396,602.446106 228.293335,601.923645 
	C228.789536,601.811768 229.357620,602.041687 230.078705,602.539429 
z" data-index="97"></path>
<path fill="#085ACD" opacity="1.000000" stroke="none" d="
M242.025085,609.594849 
	C241.565323,609.689575 240.955338,609.510864 240.237122,609.013977 
	C240.710907,608.904358 241.292877,609.112854 242.025085,609.594849 
z" data-index="98"></path>
<path fill="#0A50CA" opacity="1.000000" stroke="none" d="
M629.214355,686.602661 
	C629.121155,686.976929 628.747803,687.442383 628.015015,687.903320 
	C628.081787,687.497192 628.508057,687.095520 629.214355,686.602661 
z" data-index="99"></path>
<path fill="#0C51C9" opacity="1.000000" stroke="none" d="
M615.364136,806.131714 
	C615.534851,805.822571 616.012146,805.452026 616.818054,805.087402 
	C616.654663,805.418945 616.162659,805.744629 615.364136,806.131714 
z" data-index="100"></path>
<path fill="#0C51C9" opacity="1.000000" stroke="none" d="
M637.428345,793.245178 
	C637.587219,792.903259 638.056458,792.500549 638.866699,792.126526 
	C638.718079,792.498230 638.228394,792.841309 637.428345,793.245178 
z" data-index="101"></path>
<path fill="#085ACD" opacity="1.000000" stroke="none" d="
M254.060440,616.545166 
	C253.590866,616.659424 252.970703,616.496582 252.235901,616.012817 
	C252.717484,615.883850 253.313660,616.075928 254.060440,616.545166 
z" data-index="102"></path>
<path fill="#0642C5" opacity="1.000000" stroke="none" d="
M644.048462,603.301208 
	C644.292664,603.248352 644.621094,603.432983 644.948486,603.862305 
	C644.675781,603.917542 644.404297,603.728149 644.048462,603.301208 
z" data-index="103"></path>
<path fill="#085ACD" opacity="1.000000" stroke="none" d="
M233.665436,693.522644 
	C234.032333,693.642212 234.470718,694.061584 234.898285,694.821167 
	C234.503967,694.715027 234.120438,694.268738 233.665436,693.522644 
z" data-index="104"></path>
<path fill="#085ACD" opacity="1.000000" stroke="none" d="
M228.800140,685.406738 
	C229.130615,685.558289 229.524368,686.015076 229.914948,686.801758 
	C229.562317,686.658386 229.212860,686.185120 228.800140,685.406738 
z" data-index="105"></path>
<path fill="#085ACD" opacity="1.000000" stroke="none" d="
M240.100006,608.516602 
	C239.624435,608.590759 239.008286,608.402222 238.372467,607.861084 
	C238.888351,607.756958 239.423904,608.005371 240.100006,608.516602 
z" data-index="106"></path>
<path fill="#0A55CC" opacity="1.000000" stroke="none" d="
M557.114014,293.274658 
	C557.517334,293.225800 558.102356,293.417358 558.816040,293.900269 
	C558.395081,293.966125 557.845337,293.740601 557.114014,293.274658 
z" data-index="107"></path>
<path fill="#0A55CC" opacity="1.000000" stroke="none" d="
M447.356903,309.129791 
	C447.523163,308.826813 447.985626,308.452759 448.769165,308.065002 
	C448.611176,308.387115 448.132141,308.722900 447.356903,309.129791 
z" data-index="108"></path>
<path fill="#0A55CC" opacity="1.000000" stroke="none" d="
M452.355865,306.123108 
	C452.523834,305.816589 452.992889,305.448181 453.784943,305.071075 
	C453.624268,305.395355 453.140625,305.728271 452.355865,306.123108 
z" data-index="109"></path>
<path fill="#0C51C9" opacity="1.000000" stroke="none" d="
M567.351929,834.100098 
	C567.519409,833.786560 567.997742,833.426208 568.799072,833.070679 
	C568.635620,833.401489 568.149231,833.727417 567.351929,834.100098 
z" data-index="110"></path>
<path fill="#0A55CC" opacity="1.000000" stroke="none" d="
M567.843079,299.509491 
	C568.322205,299.459686 568.932251,299.646515 569.450806,300.178772 
	C568.897522,300.264862 568.435791,300.005493 567.843079,299.509491 
z" data-index="111"></path>
<path fill="#0A55CC" opacity="1.000000" stroke="none" d="
M462.407196,300.206421 
	C462.571808,299.870850 463.050293,299.481354 463.867310,299.124939 
	C463.710968,299.489563 463.216034,299.821045 462.407196,300.206421 
z" data-index="112"></path>
<path fill="#0A55CC" opacity="1.000000" stroke="none" d="
M562.115295,296.275757 
	C562.520386,296.207886 563.100586,296.385986 563.827393,296.839264 
	C563.412781,296.916870 562.851562,296.719299 562.115295,296.275757 
z" data-index="113"></path>
<path fill="#0A55CC" opacity="1.000000" stroke="none" d="
M467.504700,297.324982 
	C467.630768,296.960724 468.058899,296.527191 468.828308,296.104370 
	C468.715271,296.495270 468.260986,296.875488 467.504700,297.324982 
z" data-index="114"></path>
<path fill="#0A55CC" opacity="1.000000" stroke="none" d="
M469.359802,296.130737 
	C469.530304,295.827728 469.999481,295.456146 470.793518,295.077820 
	C470.631714,295.401459 470.145081,295.731812 469.359802,296.130737 
z" data-index="115"></path>
<path fill="#1258CC" opacity="1.000000" stroke="none" d="
M582.944214,386.674133 
	C582.508728,386.750793 581.918091,386.561584 581.203369,386.073853 
	C581.649292,385.986328 582.219116,386.197327 582.944214,386.674133 
z" data-index="116"></path>
<path fill="#0C51C9" opacity="1.000000" stroke="none" d="
M560.360046,838.131409 
	C560.522949,837.819824 560.989624,837.447327 561.779297,837.065430 
	C561.622803,837.394165 561.143311,837.732361 560.360046,838.131409 
z" data-index="117"></path>
<path fill="#0A55CC" opacity="1.000000" stroke="none" d="
M553.959656,291.410645 
	C554.422668,291.328430 555.037415,291.517639 555.740967,292.038055 
	C555.256897,292.140198 554.684204,291.911133 553.959656,291.410645 
z" data-index="118"></path>
<path fill="#0A55CC" opacity="1.000000" stroke="none" d="
M552.038147,290.339478 
	C552.479980,290.256531 553.078735,290.441284 553.802612,290.928192 
	C553.350159,291.022614 552.772644,290.814880 552.038147,290.339478 
z" data-index="119"></path>
<path fill="#0A55CC" opacity="1.000000" stroke="none" d="
M477.571289,291.370697 
	C477.681244,290.998779 478.084595,290.546478 478.832886,290.108826 
	C478.740082,290.512421 478.302368,290.901337 477.571289,291.370697 
z" data-index="120"></path>
<path fill="#0C51C9" opacity="1.000000" stroke="none" d="
M548.345947,844.093201 
	C548.527405,843.775085 549.025208,843.430298 549.851135,843.105347 
	C549.673584,843.438965 549.167969,843.752808 548.345947,844.093201 
z" data-index="121"></path>
<path fill="#0A55CC" opacity="1.000000" stroke="none" d="
M481.893616,288.425659 
	C481.991364,288.097809 482.307007,287.662445 482.955444,287.373596 
	C482.895996,287.786133 482.503754,288.052155 481.893616,288.425659 
z" data-index="122"></path>
<path fill="#0A55CC" opacity="1.000000" stroke="none" d="
M535.023682,280.352417 
	C535.462036,280.271149 536.066284,280.451721 536.797119,280.936646 
	C536.345642,281.032074 535.767639,280.823212 535.023682,280.352417 
z" data-index="123"></path>
<path fill="#0A55CC" opacity="1.000000" stroke="none" d="
M495.496094,280.346375 
	C495.674072,280.001465 496.146088,279.599762 496.956177,279.325867 
	C496.792847,279.732300 496.291443,280.010956 495.496094,280.346375 
z" data-index="124"></path>
<path fill="#0A55CC" opacity="1.000000" stroke="none" d="
M445.453430,310.277832 
	C445.593994,309.920837 446.043640,309.505524 446.831970,309.102844 
	C446.701263,309.483490 446.231903,309.851532 445.453430,310.277832 
z" data-index="125"></path>
<path fill="#0C50C9" opacity="1.000000" stroke="none" d="
M546.708984,183.016403 
	C546.417664,183.130035 545.849792,183.130447 545.289795,182.839600 
	C545.676025,182.666611 546.054199,182.784897 546.708984,183.016403 
z" data-index="126"></path>
<path fill="#0C51C9" opacity="1.000000" stroke="none" d="
M596.395325,817.187073 
	C596.560242,816.860901 597.038147,816.472412 597.851990,816.110596 
	C597.694763,816.466431 597.201538,816.795593 596.395325,817.187073 
z" data-index="127"></path>
<path fill="#0A55CC" opacity="1.000000" stroke="none" d="
M332.754822,378.401733 
	C332.820923,378.035614 333.148926,377.556976 333.820648,377.062897 
	C333.781799,377.461395 333.399292,377.875336 332.754822,378.401733 
z" data-index="128"></path>
<path fill="#0A55CC" opacity="1.000000" stroke="none" d="
M340.758301,372.411835 
	C340.831726,372.049927 341.163452,371.577484 341.842529,371.119202 
	C341.798767,371.522705 341.407684,371.912018 340.758301,372.411835 
z" data-index="129"></path>
<path fill="#0A55CC" opacity="1.000000" stroke="none" d="
M342.376465,371.158081 
	C342.536804,370.843079 342.999390,370.461151 343.788025,370.072876 
	C343.635620,370.408051 343.157135,370.749634 342.376465,371.158081 
z" data-index="130"></path>
<path fill="#0A55CC" opacity="1.000000" stroke="none" d="
M345.565125,369.367004 
	C345.674988,368.994476 346.079468,368.543457 346.827454,368.104919 
	C346.733856,368.507782 346.296814,368.898163 345.565125,369.367004 
z" data-index="131"></path>
<path fill="#0A55CC" opacity="1.000000" stroke="none" d="
M355.397003,363.193787 
	C355.547943,362.865662 356.002533,362.471893 356.784851,362.071808 
	C356.641937,362.419708 356.171295,362.773926 355.397003,363.193787 
z" data-index="132"></path>
<path fill="#1258CC" opacity="1.000000" stroke="none" d="
M494.614624,358.840759 
	C494.441620,359.155396 493.963379,359.528595 493.153229,359.883484 
	C493.317383,359.543243 493.813385,359.221313 494.614624,358.840759 
z" data-index="133"></path>
<path fill="#0A55CC" opacity="1.000000" stroke="none" d="
M360.388000,360.178833 
	C360.551483,359.857056 361.020874,359.473206 361.821899,359.097290 
	C361.666962,359.442352 361.180420,359.779541 360.388000,360.178833 
z" data-index="134"></path>
<path fill="#0A55CC" opacity="1.000000" stroke="none" d="
M372.381653,353.167938 
	C372.540741,352.856232 372.994629,352.469574 373.773315,352.068481 
	C373.624237,352.400360 373.150360,352.746674 372.381653,353.167938 
z" data-index="135"></path>
<path fill="#0A55CC" opacity="1.000000" stroke="none" d="
M396.342133,339.085388 
	C396.519257,338.792450 397.000122,338.435669 397.804382,338.078583 
	C397.633820,338.392700 397.139862,338.707123 396.342133,339.085388 
z" data-index="136"></path>
<path fill="#0A55CC" opacity="1.000000" stroke="none" d="
M438.638153,314.407227 
	C438.752014,314.041473 439.149170,313.585999 439.898315,313.172363 
	C439.807373,313.581970 439.364410,313.949707 438.638153,314.407227 
z" data-index="137"></path>
<path fill="#0A55CC" opacity="1.000000" stroke="none" d="
M440.437927,313.251862 
	C440.582520,312.905426 441.032288,312.496033 441.817505,312.093353 
	C441.682953,312.463013 441.213013,312.825958 440.437927,313.251862 
z" data-index="138"></path>
<path fill="#0A55CC" opacity="1.000000" stroke="none" d="
M582.965820,308.336395 
	C583.418274,308.244904 584.038635,308.429749 584.804321,308.915985 
	C584.344360,309.015839 583.739136,308.814301 582.965820,308.336395 
z" data-index="139"></path>
<path fill="#0C51C9" opacity="1.000000" stroke="none" d="
M586.306274,823.089111 
	C586.288513,822.875732 586.528137,822.603271 587.048950,822.384338 
	C587.074646,822.635315 586.819153,822.832703 586.306274,823.089111 
z" data-index="140"></path>
<path fill="#0C51C9" opacity="1.000000" stroke="none" d="
M639.361450,792.187256 
	C639.340515,792.022095 639.545166,791.804871 639.867065,791.742554 
	C639.984314,791.897339 639.587036,792.135315 639.361450,792.187256 
z" data-index="141"></path>
<path fill="#0C51C9" opacity="1.000000" stroke="none" d="
M603.313354,813.132568 
	C603.291077,812.907104 603.515747,812.635254 604.004639,812.454163 
	C604.203979,812.948547 603.967896,813.129028 603.313354,813.132568 
z" data-index="142"></path>
<path fill="#0C51C9" opacity="1.000000" stroke="none" d="
M591.327148,820.131470 
	C591.300781,819.908752 591.529114,819.626282 592.037231,819.407959 
	C592.071960,819.671875 591.826904,819.871765 591.327148,820.131470 
z" data-index="143"></path>
<path fill="#0C50C9" opacity="1.000000" stroke="none" d="
M523.027588,177.710754 
	C522.807373,177.902679 522.533630,177.771118 522.173523,177.363464 
	C522.342407,177.271378 522.638062,177.371353 523.027588,177.710754 
z" data-index="144"></path>
<path fill="#1258CC" opacity="1.000000" stroke="none" d="
M577.210938,383.303650 
	C577.006714,383.459961 576.653381,383.406464 576.182861,383.089172 
	C576.397705,382.914856 576.729736,383.004364 577.210938,383.303650 
z" data-index="145"></path>
<path fill="#0A55CC" opacity="1.000000" stroke="none" d="
M494.301208,281.031799 
	C494.268036,280.803894 494.511749,280.533691 495.041382,280.250397 
	C495.077576,280.488007 494.827850,280.738770 494.301208,281.031799 
z" data-index="146"></path>
<path fill="#0A55CC" opacity="1.000000" stroke="none" d="
M480.486145,289.320923 
	C480.417877,289.044708 480.598999,288.716064 481.072937,288.474854 
	C481.155701,288.797729 480.945648,289.033112 480.486145,289.320923 
z" data-index="147"></path>
<path fill="#0A55CC" opacity="1.000000" stroke="none" d="
M479.352264,290.117188 
	C479.302124,289.895691 479.523529,289.591766 480.038086,289.253296 
	C480.095398,289.490753 479.859619,289.762787 479.352264,290.117188 
z" data-index="148"></path>
<path fill="#0A55CC" opacity="1.000000" stroke="none" d="
M555.810181,292.469238 
	C556.032043,292.333466 556.376587,292.449554 556.851624,292.813660 
	C556.632324,292.948181 556.282654,292.834625 555.810181,292.469238 
z" data-index="149"></path>
<path fill="#0A55CC" opacity="1.000000" stroke="none" d="
M569.854614,300.769684 
	C570.050476,300.596161 570.382629,300.621094 570.831421,300.897308 
	C570.626099,301.103973 570.307068,301.043793 569.854614,300.769684 
z" data-index="150"></path>
<path fill="#0A55CC" opacity="1.000000" stroke="none" d="
M576.798950,304.730042 
	C577.015747,304.561462 577.363464,304.611877 577.819092,304.930298 
	C577.594604,305.115234 577.262207,305.032104 576.798950,304.730042 
z" data-index="151"></path>
<path fill="#0A55CC" opacity="1.000000" stroke="none" d="
M425.335022,322.139465 
	C425.307922,321.910370 425.540192,321.625824 426.058105,321.398102 
	C426.093933,321.664642 425.844177,321.874298 425.335022,322.139465 
z" data-index="152"></path>
<path fill="#0A55CC" opacity="1.000000" stroke="none" d="
M398.323212,338.081238 
	C398.286743,337.852142 398.526276,337.568604 399.058411,337.278015 
	C399.100403,337.522888 398.849823,337.774811 398.323212,338.081238 
z" data-index="153"></path>
<path fill="#0A55CC" opacity="1.000000" stroke="none" d="
M384.348694,346.167572 
	C384.316284,345.922546 384.545807,345.632812 385.062164,345.408447 
	C385.102875,345.690155 384.856750,345.906494 384.348694,346.167572 
z" data-index="154"></path>
<path fill="#0A55CC" opacity="1.000000" stroke="none" d="
M367.339050,356.149841 
	C367.309357,355.909485 367.541626,355.623779 368.059937,355.400940 
	C368.097656,355.677399 367.849365,355.890991 367.339050,356.149841 
z" data-index="155"></path>
<path fill="#1258CC" opacity="1.000000" stroke="none" d="
M492.654327,359.829834 
	C492.669434,359.998505 492.450592,360.200897 492.117676,360.244934 
	C492.003601,360.086578 492.420380,359.863556 492.654327,359.829834 
z" data-index="156"></path>
<path fill="#0A55CC" opacity="1.000000" stroke="none" d="
M344.313171,370.065582 
	C344.282166,369.841431 344.525024,369.563507 345.058868,369.285339 
	C345.095612,369.527344 344.841339,369.769562 344.313171,370.065582 
z" data-index="157"></path>
<path fill="#0A55CC" opacity="1.000000" stroke="none" d="
M328.314514,383.050659 
	C328.231171,382.841766 328.407196,382.539673 328.828156,382.130249 
	C328.906677,382.334473 328.740295,382.645996 328.314514,383.050659 
z" data-index="158"></path>
<path fill="#0A55CC" opacity="1.000000" stroke="none" d="
M327.317932,384.064392 
	C327.252899,383.861450 327.443024,383.556488 327.889923,383.149567 
	C327.955475,383.352478 327.764282,383.657410 327.317932,384.064392 
z" data-index="159"></path>
<path fill="#085ACD" opacity="1.000000" stroke="none" d="
M232.819244,692.406006 
	C233.056656,692.340088 233.377838,692.545593 233.731720,693.050659 
	C233.477295,693.125916 233.190155,692.901611 232.819244,692.406006 
z" data-index="160"></path>
<path fill="#1258CC" opacity="1.000000" stroke="none" d="
M589.219238,390.402924 
	C589.008179,390.551514 588.652405,390.471436 588.167725,390.135071 
	C588.384094,389.977264 588.729370,390.075745 589.219238,390.402924 
z" data-index="161"></path>
<path fill="#085ACD" opacity="1.000000" stroke="none" d="
M228.219559,601.483276 
	C227.993622,601.616089 227.641449,601.499817 227.169754,601.120361 
	C227.397934,600.982910 227.745636,601.108582 228.219559,601.483276 
z" data-index="162"></path>
<path fill="#085ACD" opacity="1.000000" stroke="none" d="
M231.182312,603.157837 
	C230.974976,603.328064 230.637695,603.302795 230.217194,602.999390 
	C230.450745,602.761230 230.756882,602.841614 231.182312,603.157837 
z" data-index="163"></path>
<path fill="#0642C5" opacity="1.000000" stroke="none" d="
M644.975952,604.295776 
	C645.180115,604.256958 645.470032,604.491577 645.846924,604.999695 
	C645.643127,605.038513 645.352417,604.803894 644.975952,604.295776 
z" data-index="164"></path>
<path fill="#085ACD" opacity="1.000000" stroke="none" d="
M238.264908,607.363037 
	C238.027130,607.509583 237.665756,607.410889 237.211273,607.026367 
	C237.459229,606.866211 237.800278,606.991943 238.264908,607.363037 
z" data-index="165"></path>
<path fill="#085ACD" opacity="1.000000" stroke="none" d="
M243.233398,610.325989 
	C243.013077,610.482239 242.655853,610.411926 242.189880,610.068848 
	C242.419601,609.897156 242.758057,609.998291 243.233398,610.325989 
z" data-index="166"></path>
<path fill="#0A50CA" opacity="1.000000" stroke="none" d="
M642.663879,674.905579 
	C642.738342,675.116577 642.554016,675.430847 642.109985,675.849731 
	C642.035217,675.639282 642.220154,675.324097 642.663879,674.905579 
z" data-index="167"></path>
<path fill="#0A50CA" opacity="1.000000" stroke="none" d="
M641.693542,675.951111 
	C641.760498,676.153687 641.571411,676.455444 641.129150,676.860107 
	C641.063110,676.658752 641.250305,676.354492 641.693542,675.951111 
z" data-index="168"></path>
<path fill="#0A50CA" opacity="1.000000" stroke="none" d="
M637.706421,679.950806 
	C637.765686,680.148254 637.569031,680.448914 637.118042,680.855835 
	C637.059265,680.659424 637.254822,680.356750 637.706421,679.950806 
z" data-index="169"></path>
<path fill="#0A50CA" opacity="1.000000" stroke="none" d="
M636.700317,680.960571 
	C636.755920,681.160461 636.554016,681.457031 636.093506,681.850159 
	C636.037598,681.650146 636.240173,681.353638 636.700317,680.960571 
z" data-index="170"></path>
<path fill="#0A50CA" opacity="1.000000" stroke="none" d="
M635.673096,681.921204 
	C635.732056,682.137756 635.522400,682.441528 635.035522,682.818115 
	C634.973755,682.596741 635.189148,682.302612 635.673096,681.921204 
z" data-index="171"></path>
<path fill="#0A50CA" opacity="1.000000" stroke="none" d="
M634.612671,682.833984 
	C634.679443,683.069702 634.471741,683.391296 633.966064,683.755981 
	C633.891418,683.506042 634.114807,683.212891 634.612671,682.833984 
z" data-index="172"></path>
<path fill="#0A50CA" opacity="1.000000" stroke="none" d="
M631.692261,684.955383 
	C631.744080,685.170227 631.526062,685.461792 631.033447,685.820862 
	C630.980103,685.602966 631.201294,685.317505 631.692261,684.955383 
z" data-index="173"></path>
<path fill="#0A50CA" opacity="1.000000" stroke="none" d="
M630.621216,685.801636 
	C630.669312,686.046143 630.455933,686.351318 629.952271,686.599487 
	C629.894531,686.315674 630.127136,686.088989 630.621216,685.801636 
z" data-index="174"></path>
</svg>